<svg width="175" height="175" viewBox="0 0 175 175" fill="none" xmlns="http://www.w3.org/2000/svg">
<rect width="175" height="175" rx="50" fill="#4CAF50"/>
<path d="M44.4 122.864C41.968 122.864 40.08 122.192 38.736 120.848C37.456 119.504 36.816 117.552 36.816 114.992V62.096C36.816 59.6 37.488 57.68 38.832 56.336C40.176 54.992 42.096 54.32 44.592 54.32H77.424C79.344 54.32 80.784 54.832 81.744 55.856C82.768 56.816 83.28 58.224 83.28 60.08C83.28 62 82.768 63.472 81.744 64.496C80.784 65.456 79.344 65.936 77.424 65.936H51.696V82.448H75.312C77.232 82.448 78.704 82.96 79.728 83.984C80.752 84.944 81.264 86.352 81.264 88.208C81.264 90.064 80.752 91.504 79.728 92.528C78.704 93.552 77.232 94.064 75.312 94.064H51.696V114.992C51.696 120.24 49.264 122.864 44.4 122.864ZM113.977 123.056C111.289 123.056 108.537 122.832 105.721 122.384C102.969 122 100.313 121.424 97.7528 120.656C95.2568 119.888 93.0168 118.928 91.0328 117.776C89.6248 117.008 88.6328 116.016 88.0568 114.8C87.4808 113.52 87.2568 112.24 87.3848 110.96C87.5768 109.68 88.0568 108.56 88.8248 107.6C89.6568 106.576 90.6808 105.936 91.8968 105.68C93.1768 105.36 94.5848 105.584 96.1208 106.352C98.7448 107.824 101.593 108.912 104.665 109.616C107.801 110.32 110.905 110.672 113.977 110.672C118.649 110.672 121.977 109.968 123.961 108.56C125.945 107.088 126.937 105.264 126.937 103.088C126.937 101.232 126.233 99.76 124.825 98.672C123.417 97.584 120.953 96.656 117.433 95.888L106.585 93.584C100.441 92.304 95.8648 90.128 92.8568 87.056C89.9128 83.92 88.4408 79.824 88.4408 74.768C88.4408 71.568 89.1128 68.656 90.4568 66.032C91.8008 63.408 93.6888 61.136 96.1208 59.216C98.5528 57.296 101.433 55.824 104.761 54.8C108.153 53.776 111.865 53.264 115.897 53.264C119.481 53.264 123.001 53.712 126.457 54.608C129.913 55.44 132.953 56.688 135.577 58.352C136.857 59.12 137.721 60.112 138.169 61.328C138.681 62.48 138.841 63.664 138.649 64.88C138.521 66.032 138.041 67.056 137.209 67.952C136.441 68.848 135.449 69.424 134.233 69.68C133.017 69.936 131.545 69.648 129.817 68.816C127.705 67.728 125.465 66.928 123.097 66.416C120.729 65.904 118.297 65.648 115.801 65.648C113.113 65.648 110.809 66 108.889 66.704C107.033 67.408 105.593 68.4 104.569 69.68C103.609 70.96 103.129 72.432 103.129 74.096C103.129 75.952 103.801 77.456 105.145 78.608C106.489 79.76 108.825 80.688 112.153 81.392L123.001 83.696C129.273 85.04 133.945 87.216 137.017 90.224C140.089 93.168 141.625 97.072 141.625 101.936C141.625 105.136 140.985 108.048 139.705 110.672C138.425 113.232 136.569 115.44 134.137 117.296C131.705 119.152 128.793 120.592 125.401 121.616C122.009 122.576 118.201 123.056 113.977 123.056Z" fill="white"/>
</svg>
